<mxfile host="app.diagrams.net" agent="Mozilla/5.0 (Windows NT 10.0; Win64; x64) AppleWebKit/537.36 (KHTML, like Gecko) Chrome/140.0.0.0 Safari/537.36" version="28.2.3" pages="4">
  <diagram name="BTUD-Câu 2" id="9QZWasOGUkEQq8SNaZ61">
    <mxGraphModel dx="872" dy="439" grid="1" gridSize="10" guides="1" tooltips="1" connect="1" arrows="1" fold="1" page="1" pageScale="1" pageWidth="827" pageHeight="1169" math="0" shadow="0">
      <root>
        <mxCell id="0" />
        <mxCell id="1" parent="0" />
        <mxCell id="QObjbYDo4JX9oQWGarIV-1" value="" style="ellipse;html=1;shape=startState;fillColor=#000000;strokeColor=#ff0000;movable=1;resizable=1;rotatable=1;deletable=1;editable=1;locked=0;connectable=1;" parent="1" vertex="1">
          <mxGeometry x="360" y="90" width="30" height="30" as="geometry" />
        </mxCell>
        <mxCell id="QObjbYDo4JX9oQWGarIV-2" value="" style="edgeStyle=orthogonalEdgeStyle;html=1;verticalAlign=bottom;endArrow=open;endSize=8;strokeColor=#ff0000;rounded=0;movable=1;resizable=1;rotatable=1;deletable=1;editable=1;locked=0;connectable=1;" parent="1" source="QObjbYDo4JX9oQWGarIV-1" edge="1">
          <mxGeometry relative="1" as="geometry">
            <mxPoint x="375" y="140" as="targetPoint" />
          </mxGeometry>
        </mxCell>
        <mxCell id="BsAo858MUuxilCriOJTf-2" value="" style="edgeStyle=orthogonalEdgeStyle;rounded=0;orthogonalLoop=1;jettySize=auto;html=1;" parent="1" source="QObjbYDo4JX9oQWGarIV-3" target="BsAo858MUuxilCriOJTf-1" edge="1">
          <mxGeometry relative="1" as="geometry" />
        </mxCell>
        <mxCell id="BsAo858MUuxilCriOJTf-5" value="" style="edgeStyle=orthogonalEdgeStyle;rounded=0;orthogonalLoop=1;jettySize=auto;html=1;" parent="1" source="QObjbYDo4JX9oQWGarIV-3" target="BsAo858MUuxilCriOJTf-4" edge="1">
          <mxGeometry relative="1" as="geometry" />
        </mxCell>
        <mxCell id="QObjbYDo4JX9oQWGarIV-3" value="Đăng nhập trang web" style="rounded=1;whiteSpace=wrap;html=1;movable=1;resizable=1;rotatable=1;deletable=1;editable=1;locked=0;connectable=1;" parent="1" vertex="1">
          <mxGeometry x="315" y="140" width="120" height="60" as="geometry" />
        </mxCell>
        <mxCell id="QObjbYDo4JX9oQWGarIV-7" value="" style="edgeStyle=orthogonalEdgeStyle;rounded=0;orthogonalLoop=1;jettySize=auto;html=1;" parent="1" source="QObjbYDo4JX9oQWGarIV-4" target="QObjbYDo4JX9oQWGarIV-6" edge="1">
          <mxGeometry relative="1" as="geometry" />
        </mxCell>
        <mxCell id="QObjbYDo4JX9oQWGarIV-10" style="edgeStyle=orthogonalEdgeStyle;rounded=0;orthogonalLoop=1;jettySize=auto;html=1;entryX=0;entryY=0.5;entryDx=0;entryDy=0;" parent="1" source="QObjbYDo4JX9oQWGarIV-4" target="QObjbYDo4JX9oQWGarIV-8" edge="1">
          <mxGeometry relative="1" as="geometry">
            <Array as="points">
              <mxPoint x="60" y="260" />
              <mxPoint x="60" y="410" />
            </Array>
          </mxGeometry>
        </mxCell>
        <mxCell id="QObjbYDo4JX9oQWGarIV-4" value="Duyệt danh sách sản phẩm theo chức năng lọc" style="whiteSpace=wrap;html=1;rounded=1;resizable=1;" parent="1" vertex="1">
          <mxGeometry x="150" y="220" width="120" height="60" as="geometry" />
        </mxCell>
        <mxCell id="QObjbYDo4JX9oQWGarIV-9" value="" style="edgeStyle=orthogonalEdgeStyle;rounded=0;orthogonalLoop=1;jettySize=auto;html=1;" parent="1" source="QObjbYDo4JX9oQWGarIV-6" target="QObjbYDo4JX9oQWGarIV-8" edge="1">
          <mxGeometry relative="1" as="geometry" />
        </mxCell>
        <mxCell id="QObjbYDo4JX9oQWGarIV-6" value="Xem chi tiết sản phẩm" style="whiteSpace=wrap;html=1;rounded=1;resizable=1;" parent="1" vertex="1">
          <mxGeometry x="150" y="300" width="120" height="60" as="geometry" />
        </mxCell>
        <mxCell id="7_ovZ76hrrr94_cTAPpY-7" value="" style="edgeStyle=orthogonalEdgeStyle;rounded=0;orthogonalLoop=1;jettySize=auto;html=1;" parent="1" source="QObjbYDo4JX9oQWGarIV-8" target="7_ovZ76hrrr94_cTAPpY-4" edge="1">
          <mxGeometry relative="1" as="geometry" />
        </mxCell>
        <mxCell id="QObjbYDo4JX9oQWGarIV-8" value="Thêm sản phẩm vào giỏ hàng" style="whiteSpace=wrap;html=1;rounded=1;resizable=1;" parent="1" vertex="1">
          <mxGeometry x="150" y="380" width="120" height="60" as="geometry" />
        </mxCell>
        <mxCell id="QObjbYDo4JX9oQWGarIV-14" value="" style="edgeStyle=orthogonalEdgeStyle;rounded=0;orthogonalLoop=1;jettySize=auto;html=1;" parent="1" source="QObjbYDo4JX9oQWGarIV-11" target="QObjbYDo4JX9oQWGarIV-13" edge="1">
          <mxGeometry relative="1" as="geometry" />
        </mxCell>
        <mxCell id="QObjbYDo4JX9oQWGarIV-11" value="Xem giỏ hàng và thông tin bảng tổng hợp" style="whiteSpace=wrap;html=1;rounded=1;resizable=1;" parent="1" vertex="1">
          <mxGeometry x="150" y="540" width="120" height="60" as="geometry" />
        </mxCell>
        <mxCell id="-9j9v_9V1LArLgdLgUkL-2" value="" style="edgeStyle=orthogonalEdgeStyle;rounded=0;orthogonalLoop=1;jettySize=auto;html=1;entryX=0.5;entryY=0;entryDx=0;entryDy=0;" parent="1" source="QObjbYDo4JX9oQWGarIV-13" target="55mtzg9ACRucMLzFNfV_-1" edge="1">
          <mxGeometry relative="1" as="geometry" />
        </mxCell>
        <mxCell id="QObjbYDo4JX9oQWGarIV-13" value="Thanh toán giỏ hàng" style="whiteSpace=wrap;html=1;rounded=1;resizable=1;" parent="1" vertex="1">
          <mxGeometry x="150" y="620" width="120" height="60" as="geometry" />
        </mxCell>
        <mxCell id="55mtzg9ACRucMLzFNfV_-3" value="" style="edgeStyle=orthogonalEdgeStyle;rounded=0;orthogonalLoop=1;jettySize=auto;html=1;" parent="1" target="55mtzg9ACRucMLzFNfV_-1" edge="1">
          <mxGeometry relative="1" as="geometry">
            <mxPoint x="210" y="760" as="sourcePoint" />
          </mxGeometry>
        </mxCell>
        <mxCell id="QObjbYDo4JX9oQWGarIV-19" value="" style="ellipse;html=1;shape=endState;fillColor=#000000;strokeColor=#ff0000;" parent="1" vertex="1">
          <mxGeometry x="470" y="720" width="30" height="30" as="geometry" />
        </mxCell>
        <mxCell id="BsAo858MUuxilCriOJTf-3" value="" style="edgeStyle=orthogonalEdgeStyle;rounded=0;orthogonalLoop=1;jettySize=auto;html=1;" parent="1" source="BsAo858MUuxilCriOJTf-1" target="QObjbYDo4JX9oQWGarIV-4" edge="1">
          <mxGeometry relative="1" as="geometry" />
        </mxCell>
        <mxCell id="BsAo858MUuxilCriOJTf-1" value="&lt;span style=&quot;line-height: 107%;&quot;&gt;&lt;font face=&quot;Helvetica&quot; style=&quot;font-size: 12px;&quot;&gt;Người&lt;br&gt;mua tới trang sản phẩm&lt;/font&gt;&lt;/span&gt;" style="whiteSpace=wrap;html=1;rounded=1;resizable=1;" parent="1" vertex="1">
          <mxGeometry x="150" y="140" width="120" height="60" as="geometry" />
        </mxCell>
        <mxCell id="BsAo858MUuxilCriOJTf-26" value="" style="edgeStyle=orthogonalEdgeStyle;rounded=0;orthogonalLoop=1;jettySize=auto;html=1;" parent="1" source="BsAo858MUuxilCriOJTf-4" target="BsAo858MUuxilCriOJTf-12" edge="1">
          <mxGeometry relative="1" as="geometry" />
        </mxCell>
        <mxCell id="BsAo858MUuxilCriOJTf-4" value="&lt;span style=&quot;line-height: 107%;&quot;&gt;&lt;font style=&quot;font-size: 12px;&quot; face=&quot;Helvetica&quot;&gt;Quản&lt;br/&gt;trị viên tới trang quản trị&lt;/font&gt;&lt;/span&gt;" style="whiteSpace=wrap;html=1;rounded=1;resizable=1;" parent="1" vertex="1">
          <mxGeometry x="490" y="140" width="120" height="60" as="geometry" />
        </mxCell>
        <mxCell id="BsAo858MUuxilCriOJTf-27" value="" style="edgeStyle=orthogonalEdgeStyle;rounded=0;orthogonalLoop=1;jettySize=auto;html=1;" parent="1" source="BsAo858MUuxilCriOJTf-12" target="BsAo858MUuxilCriOJTf-16" edge="1">
          <mxGeometry relative="1" as="geometry" />
        </mxCell>
        <mxCell id="BsAo858MUuxilCriOJTf-12" value="&lt;div&gt;&lt;br&gt;&lt;/div&gt;Quản lý&lt;span style=&quot;text-indent: -18pt; background-color: transparent; color: light-dark(rgb(0, 0, 0), rgb(255, 255, 255)); font-family: &amp;quot;Courier New&amp;quot;;&quot;&gt;&lt;span style=&quot;font-variant-numeric: normal; font-variant-east-asian: normal; font-variant-alternates: normal; font-size-adjust: none; font-kerning: auto; font-optical-sizing: auto; font-feature-settings: normal; font-variation-settings: normal; font-variant-position: normal; font-variant-emoji: normal; font-stretch: normal; font-size: 7pt; line-height: normal; font-family: &amp;quot;Times New Roman&amp;quot;;&quot;&gt;&amp;nbsp;&lt;/span&gt;&lt;/span&gt;&lt;span style=&quot;text-indent: -18pt; background-color: transparent; color: light-dark(rgb(0, 0, 0), rgb(255, 255, 255));&quot;&gt;sản&lt;br&gt;phẩm; gán sản phẩm vào kho hàng.&lt;/span&gt;&lt;p style=&quot;mso-margin-top-alt:auto;mso-margin-bottom-alt:&amp;lt;br/&amp;gt;auto;margin-left:54.0pt;mso-add-space:auto;text-indent:-18.0pt;line-height:&amp;lt;br/&amp;gt;normal;mso-list:l0 level1 lfo1&quot; class=&quot;MsoListParagraph&quot;&gt;&lt;/p&gt;" style="rounded=1;whiteSpace=wrap;html=1;" parent="1" vertex="1">
          <mxGeometry x="490" y="220" width="120" height="60" as="geometry" />
        </mxCell>
        <mxCell id="BsAo858MUuxilCriOJTf-13" value="&lt;span style=&quot;line-height: 107%;&quot;&gt;&lt;font face=&quot;Helvetica&quot; style=&quot;&quot;&gt;Xem&lt;br&gt;giỏ hàng và kích hoạt hoặc vô hiệu hóa giỏ hàng&amp;nbsp;&lt;/font&gt;&lt;/span&gt;" style="whiteSpace=wrap;html=1;rounded=1;resizable=1;" parent="1" vertex="1">
          <mxGeometry x="490" y="380" width="120" height="60" as="geometry" />
        </mxCell>
        <mxCell id="BsAo858MUuxilCriOJTf-28" value="" style="edgeStyle=orthogonalEdgeStyle;rounded=0;orthogonalLoop=1;jettySize=auto;html=1;" parent="1" source="BsAo858MUuxilCriOJTf-16" target="BsAo858MUuxilCriOJTf-13" edge="1">
          <mxGeometry relative="1" as="geometry" />
        </mxCell>
        <mxCell id="BsAo858MUuxilCriOJTf-16" value="&lt;span class=&quot;fontstyle01&quot;&gt;&lt;span style=&quot;line-height: 107%;&quot;&gt;&lt;font style=&quot;&quot;&gt;&lt;font face=&quot;Helvetica&quot;&gt;Quản&lt;br&gt;&lt;/font&gt;&lt;font face=&quot;Helvetica&quot;&gt;lý kho hàng&lt;/font&gt;&lt;/font&gt;&lt;/span&gt;&lt;/span&gt;" style="whiteSpace=wrap;html=1;rounded=1;resizable=1;" parent="1" vertex="1">
          <mxGeometry x="490" y="300" width="120" height="60" as="geometry" />
        </mxCell>
        <mxCell id="55mtzg9ACRucMLzFNfV_-4" value="" style="edgeStyle=orthogonalEdgeStyle;rounded=0;orthogonalLoop=1;jettySize=auto;html=1;entryX=0;entryY=0.5;entryDx=0;entryDy=0;exitX=1;exitY=0.5;exitDx=0;exitDy=0;" parent="1" source="55mtzg9ACRucMLzFNfV_-1" target="-9j9v_9V1LArLgdLgUkL-1" edge="1">
          <mxGeometry relative="1" as="geometry">
            <mxPoint x="315" y="825" as="targetPoint" />
          </mxGeometry>
        </mxCell>
        <mxCell id="55mtzg9ACRucMLzFNfV_-1" value="" style="rhombus;whiteSpace=wrap;html=1;" parent="1" vertex="1">
          <mxGeometry x="182.5" y="710" width="55" height="50" as="geometry" />
        </mxCell>
        <mxCell id="55mtzg9ACRucMLzFNfV_-2" value="Kiểm tra đơn hàng?" style="text;html=1;align=center;verticalAlign=middle;resizable=0;points=[];autosize=1;strokeColor=none;fillColor=none;" parent="1" vertex="1">
          <mxGeometry x="200" y="685" width="130" height="30" as="geometry" />
        </mxCell>
        <mxCell id="55mtzg9ACRucMLzFNfV_-5" value="" style="endArrow=classic;html=1;rounded=0;exitX=0;exitY=0.5;exitDx=0;exitDy=0;entryX=0;entryY=0.5;entryDx=0;entryDy=0;" parent="1" source="55mtzg9ACRucMLzFNfV_-1" target="QObjbYDo4JX9oQWGarIV-11" edge="1">
          <mxGeometry width="50" height="50" relative="1" as="geometry">
            <mxPoint x="80" y="770" as="sourcePoint" />
            <mxPoint x="130" y="720" as="targetPoint" />
            <Array as="points">
              <mxPoint x="50" y="735" />
              <mxPoint x="50" y="570" />
            </Array>
          </mxGeometry>
        </mxCell>
        <mxCell id="7_ovZ76hrrr94_cTAPpY-10" style="edgeStyle=orthogonalEdgeStyle;rounded=0;orthogonalLoop=1;jettySize=auto;html=1;exitX=0.5;exitY=1;exitDx=0;exitDy=0;entryX=0.5;entryY=0;entryDx=0;entryDy=0;" parent="1" source="7_ovZ76hrrr94_cTAPpY-4" target="QObjbYDo4JX9oQWGarIV-11" edge="1">
          <mxGeometry relative="1" as="geometry" />
        </mxCell>
        <mxCell id="7_ovZ76hrrr94_cTAPpY-4" value="" style="rhombus;whiteSpace=wrap;html=1;" parent="1" vertex="1">
          <mxGeometry x="182.5" y="470" width="55" height="50" as="geometry" />
        </mxCell>
        <mxCell id="7_ovZ76hrrr94_cTAPpY-5" value="Sản phẩm còn hàng?" style="text;html=1;align=center;verticalAlign=middle;resizable=0;points=[];autosize=1;strokeColor=none;fillColor=none;" parent="1" vertex="1">
          <mxGeometry x="210" y="450" width="140" height="30" as="geometry" />
        </mxCell>
        <mxCell id="-9j9v_9V1LArLgdLgUkL-1" value="Xác thực đơn hàng, xủ lý thanh toán và gửi email" style="rounded=1;whiteSpace=wrap;html=1;resizable=1;" parent="1" vertex="1">
          <mxGeometry x="300" y="705" width="120" height="60" as="geometry" />
        </mxCell>
        <mxCell id="-9j9v_9V1LArLgdLgUkL-4" value="" style="endArrow=classic;html=1;rounded=0;exitX=1;exitY=0.5;exitDx=0;exitDy=0;entryX=0;entryY=0.5;entryDx=0;entryDy=0;" parent="1" source="-9j9v_9V1LArLgdLgUkL-1" target="QObjbYDo4JX9oQWGarIV-19" edge="1">
          <mxGeometry width="50" height="50" relative="1" as="geometry">
            <mxPoint x="330" y="830" as="sourcePoint" />
            <mxPoint x="380" y="780" as="targetPoint" />
          </mxGeometry>
        </mxCell>
        <mxCell id="RetbCbvZZGUiC-SovTgS-1" value="" style="endArrow=classic;html=1;rounded=0;exitX=1;exitY=0.5;exitDx=0;exitDy=0;entryX=1;entryY=0.5;entryDx=0;entryDy=0;" parent="1" source="7_ovZ76hrrr94_cTAPpY-4" target="QObjbYDo4JX9oQWGarIV-6" edge="1">
          <mxGeometry width="50" height="50" relative="1" as="geometry">
            <mxPoint x="310" y="530" as="sourcePoint" />
            <mxPoint x="360" y="480" as="targetPoint" />
            <Array as="points">
              <mxPoint x="360" y="495" />
              <mxPoint x="360" y="330" />
            </Array>
          </mxGeometry>
        </mxCell>
        <mxCell id="LPGG-GntTVV5kARoyveW-1" value="" style="endArrow=classic;html=1;rounded=0;exitX=0.5;exitY=1;exitDx=0;exitDy=0;entryX=1;entryY=0.5;entryDx=0;entryDy=0;" parent="1" source="BsAo858MUuxilCriOJTf-13" target="QObjbYDo4JX9oQWGarIV-19" edge="1">
          <mxGeometry width="50" height="50" relative="1" as="geometry">
            <mxPoint x="530" y="570" as="sourcePoint" />
            <mxPoint x="550" y="750" as="targetPoint" />
            <Array as="points">
              <mxPoint x="550" y="735" />
            </Array>
          </mxGeometry>
        </mxCell>
      </root>
    </mxGraphModel>
  </diagram>
  <diagram id="YdmCBia_pcAs3gTjAZVh" name="BTUD-Câu 3">
    <mxGraphModel dx="872" dy="439" grid="1" gridSize="10" guides="1" tooltips="1" connect="1" arrows="1" fold="1" page="1" pageScale="1" pageWidth="827" pageHeight="1169" math="0" shadow="0">
      <root>
        <mxCell id="0" />
        <mxCell id="1" parent="0" />
        <mxCell id="aR0UHmsHwf2E51hmKea0-1" value="Người mua" style="shape=umlActor;verticalLabelPosition=bottom;verticalAlign=top;html=1;outlineConnect=0;" parent="1" vertex="1">
          <mxGeometry x="70" y="320" width="30" height="60" as="geometry" />
        </mxCell>
        <mxCell id="aR0UHmsHwf2E51hmKea0-2" value="Quản trị viên" style="shape=umlActor;verticalLabelPosition=bottom;verticalAlign=top;html=1;outlineConnect=0;" parent="1" vertex="1">
          <mxGeometry x="980" y="330" width="30" height="60" as="geometry" />
        </mxCell>
        <mxCell id="aR0UHmsHwf2E51hmKea0-7" value="" style="endArrow=classic;html=1;rounded=0;exitX=0.5;exitY=0.5;exitDx=0;exitDy=0;entryX=0.5;entryY=0.5;entryDx=0;entryDy=0;entryPerimeter=0;exitPerimeter=0;" parent="1" source="aR0UHmsHwf2E51hmKea0-2" target="aR0UHmsHwf2E51hmKea0-2" edge="1">
          <mxGeometry width="50" height="50" relative="1" as="geometry">
            <mxPoint x="550" y="180" as="sourcePoint" />
            <mxPoint x="785" y="40" as="targetPoint" />
          </mxGeometry>
        </mxCell>
        <mxCell id="aR0UHmsHwf2E51hmKea0-28" value="" style="edgeStyle=orthogonalEdgeStyle;rounded=0;orthogonalLoop=1;jettySize=auto;html=1;" parent="1" source="aR0UHmsHwf2E51hmKea0-11" target="aR0UHmsHwf2E51hmKea0-13" edge="1">
          <mxGeometry relative="1" as="geometry" />
        </mxCell>
        <mxCell id="aR0UHmsHwf2E51hmKea0-30" style="edgeStyle=orthogonalEdgeStyle;rounded=0;orthogonalLoop=1;jettySize=auto;html=1;" parent="1" source="aR0UHmsHwf2E51hmKea0-11" target="aR0UHmsHwf2E51hmKea0-15" edge="1">
          <mxGeometry relative="1" as="geometry">
            <Array as="points">
              <mxPoint x="414" y="290" />
            </Array>
          </mxGeometry>
        </mxCell>
        <mxCell id="aR0UHmsHwf2E51hmKea0-11" value="Duyệt danh sách sản phẩm" style="ellipse;whiteSpace=wrap;html=1;" parent="1" vertex="1">
          <mxGeometry x="332" y="130" width="164" height="80" as="geometry" />
        </mxCell>
        <mxCell id="aR0UHmsHwf2E51hmKea0-12" value="" style="endArrow=classic;html=1;rounded=0;exitX=0.5;exitY=0.5;exitDx=0;exitDy=0;exitPerimeter=0;entryX=0;entryY=0.5;entryDx=0;entryDy=0;" parent="1" source="aR0UHmsHwf2E51hmKea0-1" target="aR0UHmsHwf2E51hmKea0-11" edge="1">
          <mxGeometry width="50" height="50" relative="1" as="geometry">
            <mxPoint x="115" y="220" as="sourcePoint" />
            <mxPoint x="340" y="80" as="targetPoint" />
          </mxGeometry>
        </mxCell>
        <mxCell id="aR0UHmsHwf2E51hmKea0-31" value="" style="edgeStyle=orthogonalEdgeStyle;rounded=0;orthogonalLoop=1;jettySize=auto;html=1;" parent="1" source="aR0UHmsHwf2E51hmKea0-13" target="aR0UHmsHwf2E51hmKea0-15" edge="1">
          <mxGeometry relative="1" as="geometry">
            <Array as="points">
              <mxPoint x="692" y="290" />
            </Array>
          </mxGeometry>
        </mxCell>
        <mxCell id="aR0UHmsHwf2E51hmKea0-13" value="Xem chi tiết sản phẩm" style="ellipse;whiteSpace=wrap;html=1;" parent="1" vertex="1">
          <mxGeometry x="610" y="130" width="164" height="80" as="geometry" />
        </mxCell>
        <mxCell id="aR0UHmsHwf2E51hmKea0-33" value="" style="edgeStyle=orthogonalEdgeStyle;rounded=0;orthogonalLoop=1;jettySize=auto;html=1;" parent="1" source="aR0UHmsHwf2E51hmKea0-15" target="aR0UHmsHwf2E51hmKea0-17" edge="1">
          <mxGeometry relative="1" as="geometry" />
        </mxCell>
        <mxCell id="aR0UHmsHwf2E51hmKea0-15" value="Thêm sản phẩm vào giỏ hàng" style="ellipse;whiteSpace=wrap;html=1;" parent="1" vertex="1">
          <mxGeometry x="496" y="250" width="164" height="80" as="geometry" />
        </mxCell>
        <mxCell id="aR0UHmsHwf2E51hmKea0-34" value="" style="edgeStyle=orthogonalEdgeStyle;rounded=0;orthogonalLoop=1;jettySize=auto;html=1;" parent="1" source="aR0UHmsHwf2E51hmKea0-17" target="aR0UHmsHwf2E51hmKea0-19" edge="1">
          <mxGeometry relative="1" as="geometry" />
        </mxCell>
        <mxCell id="aR0UHmsHwf2E51hmKea0-17" value="Xem giỏ hàng và bảng tổng hợp" style="ellipse;whiteSpace=wrap;html=1;" parent="1" vertex="1">
          <mxGeometry x="496" y="360" width="164" height="80" as="geometry" />
        </mxCell>
        <mxCell id="aR0UHmsHwf2E51hmKea0-18" value="" style="endArrow=classic;html=1;rounded=0;exitX=0.5;exitY=0.5;exitDx=0;exitDy=0;exitPerimeter=0;entryX=0;entryY=0.5;entryDx=0;entryDy=0;" parent="1" source="aR0UHmsHwf2E51hmKea0-1" target="aR0UHmsHwf2E51hmKea0-17" edge="1">
          <mxGeometry width="50" height="50" relative="1" as="geometry">
            <mxPoint x="115" y="220" as="sourcePoint" />
            <mxPoint x="340" y="380" as="targetPoint" />
          </mxGeometry>
        </mxCell>
        <mxCell id="aR0UHmsHwf2E51hmKea0-35" value="" style="edgeStyle=orthogonalEdgeStyle;rounded=0;orthogonalLoop=1;jettySize=auto;html=1;" parent="1" source="aR0UHmsHwf2E51hmKea0-19" target="aR0UHmsHwf2E51hmKea0-20" edge="1">
          <mxGeometry relative="1" as="geometry" />
        </mxCell>
        <mxCell id="aR0UHmsHwf2E51hmKea0-19" value="Thanh toán" style="ellipse;whiteSpace=wrap;html=1;" parent="1" vertex="1">
          <mxGeometry x="496" y="470" width="164" height="80" as="geometry" />
        </mxCell>
        <mxCell id="aR0UHmsHwf2E51hmKea0-20" value="Đánh giá sản phẩm" style="ellipse;whiteSpace=wrap;html=1;" parent="1" vertex="1">
          <mxGeometry x="496" y="580" width="164" height="80" as="geometry" />
        </mxCell>
        <mxCell id="aR0UHmsHwf2E51hmKea0-21" value="" style="endArrow=classic;html=1;rounded=0;exitX=0.5;exitY=0.5;exitDx=0;exitDy=0;exitPerimeter=0;entryX=0;entryY=0.5;entryDx=0;entryDy=0;" parent="1" source="aR0UHmsHwf2E51hmKea0-1" target="aR0UHmsHwf2E51hmKea0-19" edge="1">
          <mxGeometry width="50" height="50" relative="1" as="geometry">
            <mxPoint x="115" y="220" as="sourcePoint" />
            <mxPoint x="340" y="480" as="targetPoint" />
          </mxGeometry>
        </mxCell>
        <mxCell id="aR0UHmsHwf2E51hmKea0-22" value="" style="endArrow=classic;html=1;rounded=0;exitX=0.5;exitY=0.5;exitDx=0;exitDy=0;exitPerimeter=0;entryX=0;entryY=0.5;entryDx=0;entryDy=0;" parent="1" source="aR0UHmsHwf2E51hmKea0-1" target="aR0UHmsHwf2E51hmKea0-20" edge="1">
          <mxGeometry width="50" height="50" relative="1" as="geometry">
            <mxPoint x="115" y="220" as="sourcePoint" />
            <mxPoint x="340" y="580" as="targetPoint" />
          </mxGeometry>
        </mxCell>
        <mxCell id="aR0UHmsHwf2E51hmKea0-24" value="Đăng nhập" style="ellipse;whiteSpace=wrap;html=1;" parent="1" vertex="1">
          <mxGeometry x="496" y="40" width="164" height="80" as="geometry" />
        </mxCell>
        <mxCell id="aR0UHmsHwf2E51hmKea0-27" value="" style="endArrow=classic;html=1;rounded=0;exitX=0.5;exitY=0.5;exitDx=0;exitDy=0;exitPerimeter=0;entryX=0;entryY=0.5;entryDx=0;entryDy=0;" parent="1" source="aR0UHmsHwf2E51hmKea0-1" target="aR0UHmsHwf2E51hmKea0-24" edge="1">
          <mxGeometry width="50" height="50" relative="1" as="geometry">
            <mxPoint x="95" y="360" as="sourcePoint" />
            <mxPoint x="342" y="180" as="targetPoint" />
            <Array as="points">
              <mxPoint x="190" y="80" />
            </Array>
          </mxGeometry>
        </mxCell>
        <mxCell id="aR0UHmsHwf2E51hmKea0-38" value="" style="endArrow=classic;html=1;rounded=0;entryX=1;entryY=0.5;entryDx=0;entryDy=0;exitX=0.5;exitY=0.5;exitDx=0;exitDy=0;exitPerimeter=0;" parent="1" source="aR0UHmsHwf2E51hmKea0-2" target="aR0UHmsHwf2E51hmKea0-24" edge="1">
          <mxGeometry width="50" height="50" relative="1" as="geometry">
            <mxPoint x="900" y="210" as="sourcePoint" />
            <mxPoint x="950" y="160" as="targetPoint" />
            <Array as="points">
              <mxPoint x="950" y="80" />
            </Array>
          </mxGeometry>
        </mxCell>
        <mxCell id="aR0UHmsHwf2E51hmKea0-39" value="Quản lý sản phẩm" style="ellipse;whiteSpace=wrap;html=1;" parent="1" vertex="1">
          <mxGeometry x="496" y="670" width="164" height="80" as="geometry" />
        </mxCell>
        <mxCell id="aR0UHmsHwf2E51hmKea0-40" value="Quản lý kho hàng" style="ellipse;whiteSpace=wrap;html=1;" parent="1" vertex="1">
          <mxGeometry x="490" y="760" width="164" height="80" as="geometry" />
        </mxCell>
        <mxCell id="aR0UHmsHwf2E51hmKea0-41" value="Quản lý giỏ hàng người dùng" style="ellipse;whiteSpace=wrap;html=1;" parent="1" vertex="1">
          <mxGeometry x="490" y="850" width="164" height="80" as="geometry" />
        </mxCell>
        <mxCell id="aR0UHmsHwf2E51hmKea0-43" value="" style="endArrow=classic;html=1;rounded=0;exitX=0.5;exitY=0.5;exitDx=0;exitDy=0;exitPerimeter=0;entryX=1;entryY=0.5;entryDx=0;entryDy=0;" parent="1" source="aR0UHmsHwf2E51hmKea0-2" target="aR0UHmsHwf2E51hmKea0-39" edge="1">
          <mxGeometry width="50" height="50" relative="1" as="geometry">
            <mxPoint x="95" y="360" as="sourcePoint" />
            <mxPoint x="506" y="410" as="targetPoint" />
          </mxGeometry>
        </mxCell>
        <mxCell id="aR0UHmsHwf2E51hmKea0-44" value="" style="endArrow=classic;html=1;rounded=0;exitX=0.5;exitY=0.5;exitDx=0;exitDy=0;exitPerimeter=0;entryX=1;entryY=0.5;entryDx=0;entryDy=0;" parent="1" source="aR0UHmsHwf2E51hmKea0-2" target="aR0UHmsHwf2E51hmKea0-40" edge="1">
          <mxGeometry width="50" height="50" relative="1" as="geometry">
            <mxPoint x="1005" y="370" as="sourcePoint" />
            <mxPoint x="664" y="720" as="targetPoint" />
          </mxGeometry>
        </mxCell>
        <mxCell id="aR0UHmsHwf2E51hmKea0-45" value="" style="endArrow=classic;html=1;rounded=0;exitX=0.5;exitY=0.5;exitDx=0;exitDy=0;exitPerimeter=0;entryX=1;entryY=0.5;entryDx=0;entryDy=0;" parent="1" source="aR0UHmsHwf2E51hmKea0-2" target="aR0UHmsHwf2E51hmKea0-41" edge="1">
          <mxGeometry width="50" height="50" relative="1" as="geometry">
            <mxPoint x="1005" y="370" as="sourcePoint" />
            <mxPoint x="664" y="810" as="targetPoint" />
          </mxGeometry>
        </mxCell>
        <mxCell id="kxycolQoP7sQrq_MkoQY-1" value="&amp;lt;&amp;lt;includes&amp;gt;&amp;gt;" style="text;html=1;align=center;verticalAlign=middle;resizable=0;points=[];autosize=1;strokeColor=none;fillColor=none;" parent="1" vertex="1">
          <mxGeometry x="500" y="140" width="100" height="30" as="geometry" />
        </mxCell>
      </root>
    </mxGraphModel>
  </diagram>
  <diagram id="eKMm3We5N4vG1naHihrE" name="BTUD-Câu 5">
    <mxGraphModel dx="872" dy="439" grid="1" gridSize="10" guides="1" tooltips="1" connect="1" arrows="1" fold="1" page="1" pageScale="1" pageWidth="827" pageHeight="1169" math="0" shadow="0">
      <root>
        <mxCell id="0" />
        <mxCell id="1" parent="0" />
        <mxCell id="1-zbCwgmiYKT-RTOrHVb-1" value="" style="ellipse;html=1;shape=startState;fillColor=#000000;strokeColor=#ff0000;movable=1;resizable=1;rotatable=1;deletable=1;editable=1;locked=0;connectable=1;" parent="1" vertex="1">
          <mxGeometry x="600" y="260" width="30" height="30" as="geometry" />
        </mxCell>
        <mxCell id="1-zbCwgmiYKT-RTOrHVb-2" value="" style="edgeStyle=orthogonalEdgeStyle;html=1;verticalAlign=bottom;endArrow=open;endSize=8;strokeColor=#ff0000;rounded=0;movable=1;resizable=1;rotatable=1;deletable=1;editable=1;locked=0;connectable=1;" parent="1" source="1-zbCwgmiYKT-RTOrHVb-1" edge="1">
          <mxGeometry relative="1" as="geometry">
            <mxPoint x="615" y="310" as="targetPoint" />
          </mxGeometry>
        </mxCell>
        <mxCell id="1-zbCwgmiYKT-RTOrHVb-9" value="" style="edgeStyle=orthogonalEdgeStyle;rounded=0;orthogonalLoop=1;jettySize=auto;html=1;exitX=0.5;exitY=1;exitDx=0;exitDy=0;" parent="1" source="1-zbCwgmiYKT-RTOrHVb-33" target="1-zbCwgmiYKT-RTOrHVb-12" edge="1">
          <mxGeometry relative="1" as="geometry">
            <mxPoint x="450" y="530" as="sourcePoint" />
          </mxGeometry>
        </mxCell>
        <mxCell id="YenCs6LjfYdLTVOBhxwv-2" value="" style="edgeStyle=orthogonalEdgeStyle;rounded=0;orthogonalLoop=1;jettySize=auto;html=1;" parent="1" source="1-zbCwgmiYKT-RTOrHVb-12" target="YenCs6LjfYdLTVOBhxwv-1" edge="1">
          <mxGeometry relative="1" as="geometry" />
        </mxCell>
        <mxCell id="1-zbCwgmiYKT-RTOrHVb-12" value="Thêm sản phẩm vào giỏ hàng" style="whiteSpace=wrap;html=1;rounded=1;resizable=1;" parent="1" vertex="1">
          <mxGeometry x="555" y="480" width="120" height="60" as="geometry" />
        </mxCell>
        <mxCell id="1-zbCwgmiYKT-RTOrHVb-13" value="" style="edgeStyle=orthogonalEdgeStyle;rounded=0;orthogonalLoop=1;jettySize=auto;html=1;" parent="1" source="1-zbCwgmiYKT-RTOrHVb-14" target="1-zbCwgmiYKT-RTOrHVb-16" edge="1">
          <mxGeometry relative="1" as="geometry" />
        </mxCell>
        <mxCell id="1-zbCwgmiYKT-RTOrHVb-14" value="Kiểm tra giỏ hàng" style="whiteSpace=wrap;html=1;rounded=1;resizable=1;" parent="1" vertex="1">
          <mxGeometry x="555" y="630" width="120" height="60" as="geometry" />
        </mxCell>
        <mxCell id="33LRghwRcfOzIvcua1ix-1" value="" style="edgeStyle=orthogonalEdgeStyle;rounded=0;orthogonalLoop=1;jettySize=auto;html=1;entryX=0.5;entryY=0;entryDx=0;entryDy=0;" parent="1" source="1-zbCwgmiYKT-RTOrHVb-16" target="1-zbCwgmiYKT-RTOrHVb-36" edge="1">
          <mxGeometry relative="1" as="geometry">
            <mxPoint x="740" y="810" as="targetPoint" />
          </mxGeometry>
        </mxCell>
        <mxCell id="1-zbCwgmiYKT-RTOrHVb-16" value="Thanh toán giỏ hàng" style="whiteSpace=wrap;html=1;rounded=1;resizable=1;" parent="1" vertex="1">
          <mxGeometry x="555" y="710" width="120" height="60" as="geometry" />
        </mxCell>
        <mxCell id="1-zbCwgmiYKT-RTOrHVb-19" value="" style="edgeStyle=orthogonalEdgeStyle;rounded=0;orthogonalLoop=1;jettySize=auto;html=1;" parent="1" source="1-zbCwgmiYKT-RTOrHVb-20" target="1-zbCwgmiYKT-RTOrHVb-21" edge="1">
          <mxGeometry relative="1" as="geometry" />
        </mxCell>
        <mxCell id="1-zbCwgmiYKT-RTOrHVb-20" value="Xác thực đơn hàng, xử lý thanh toán và gửi email" style="whiteSpace=wrap;html=1;rounded=1;resizable=1;" parent="1" vertex="1">
          <mxGeometry x="555" y="860" width="120" height="60" as="geometry" />
        </mxCell>
        <mxCell id="1-zbCwgmiYKT-RTOrHVb-21" value="" style="ellipse;html=1;shape=endState;fillColor=#000000;strokeColor=#ff0000;" parent="1" vertex="1">
          <mxGeometry x="600" y="950" width="30" height="30" as="geometry" />
        </mxCell>
        <mxCell id="1-zbCwgmiYKT-RTOrHVb-34" value="" style="edgeStyle=orthogonalEdgeStyle;rounded=0;orthogonalLoop=1;jettySize=auto;html=1;" parent="1" source="1-zbCwgmiYKT-RTOrHVb-32" target="1-zbCwgmiYKT-RTOrHVb-33" edge="1">
          <mxGeometry relative="1" as="geometry" />
        </mxCell>
        <mxCell id="1-zbCwgmiYKT-RTOrHVb-32" value="Chọn sản phẩm" style="rounded=1;whiteSpace=wrap;html=1;" parent="1" vertex="1">
          <mxGeometry x="555" y="310" width="120" height="60" as="geometry" />
        </mxCell>
        <mxCell id="1-zbCwgmiYKT-RTOrHVb-33" value="Nhấn mua hàng" style="whiteSpace=wrap;html=1;rounded=1;" parent="1" vertex="1">
          <mxGeometry x="555" y="390" width="120" height="60" as="geometry" />
        </mxCell>
        <mxCell id="1-zbCwgmiYKT-RTOrHVb-39" value="" style="edgeStyle=orthogonalEdgeStyle;rounded=0;orthogonalLoop=1;jettySize=auto;html=1;" parent="1" source="1-zbCwgmiYKT-RTOrHVb-36" target="1-zbCwgmiYKT-RTOrHVb-20" edge="1">
          <mxGeometry relative="1" as="geometry" />
        </mxCell>
        <mxCell id="1-zbCwgmiYKT-RTOrHVb-36" value="" style="rhombus;whiteSpace=wrap;html=1;" parent="1" vertex="1">
          <mxGeometry x="587.5" y="790" width="55" height="50" as="geometry" />
        </mxCell>
        <mxCell id="m2zkRx54UEnzykLWzWRM-1" value="" style="endArrow=classic;html=1;rounded=0;exitX=0;exitY=0.5;exitDx=0;exitDy=0;entryX=0;entryY=0.5;entryDx=0;entryDy=0;" parent="1" source="1-zbCwgmiYKT-RTOrHVb-36" target="1-zbCwgmiYKT-RTOrHVb-16" edge="1">
          <mxGeometry width="50" height="50" relative="1" as="geometry">
            <mxPoint x="410" y="910" as="sourcePoint" />
            <mxPoint x="400" y="860" as="targetPoint" />
            <Array as="points">
              <mxPoint x="500" y="815" />
              <mxPoint x="500" y="740" />
            </Array>
          </mxGeometry>
        </mxCell>
        <mxCell id="33LRghwRcfOzIvcua1ix-2" value="Kiểm tra đơn hàng?" style="text;html=1;align=center;verticalAlign=middle;resizable=0;points=[];autosize=1;strokeColor=none;fillColor=none;" parent="1" vertex="1">
          <mxGeometry x="620" y="780" width="130" height="30" as="geometry" />
        </mxCell>
        <mxCell id="YenCs6LjfYdLTVOBhxwv-1" value="" style="rhombus;whiteSpace=wrap;html=1;" parent="1" vertex="1">
          <mxGeometry x="587.5" y="560" width="55" height="50" as="geometry" />
        </mxCell>
        <mxCell id="YenCs6LjfYdLTVOBhxwv-3" value="Sản phẩm còn hàng?" style="text;html=1;align=center;verticalAlign=middle;resizable=0;points=[];autosize=1;strokeColor=none;fillColor=none;" parent="1" vertex="1">
          <mxGeometry x="615" y="550" width="140" height="30" as="geometry" />
        </mxCell>
        <mxCell id="YenCs6LjfYdLTVOBhxwv-5" value="" style="endArrow=classic;html=1;rounded=0;exitX=0.5;exitY=1;exitDx=0;exitDy=0;entryX=0.5;entryY=0;entryDx=0;entryDy=0;" parent="1" source="YenCs6LjfYdLTVOBhxwv-1" target="1-zbCwgmiYKT-RTOrHVb-14" edge="1">
          <mxGeometry width="50" height="50" relative="1" as="geometry">
            <mxPoint x="280" y="750" as="sourcePoint" />
            <mxPoint x="330" y="700" as="targetPoint" />
          </mxGeometry>
        </mxCell>
        <mxCell id="1Rko961-GpDAmSUHQ4He-2" value="" style="endArrow=classic;html=1;rounded=0;exitX=0;exitY=0.5;exitDx=0;exitDy=0;entryX=0;entryY=0.5;entryDx=0;entryDy=0;" parent="1" source="YenCs6LjfYdLTVOBhxwv-1" target="1-zbCwgmiYKT-RTOrHVb-32" edge="1">
          <mxGeometry width="50" height="50" relative="1" as="geometry">
            <mxPoint x="440" y="620" as="sourcePoint" />
            <mxPoint x="490" y="570" as="targetPoint" />
            <Array as="points">
              <mxPoint x="480" y="585" />
              <mxPoint x="480" y="340" />
            </Array>
          </mxGeometry>
        </mxCell>
      </root>
    </mxGraphModel>
  </diagram>
  <diagram id="WuJ_JtXilMyg2EQ2HLfz" name="BTUD-Câu 6">
    <mxGraphModel dx="872" dy="439" grid="1" gridSize="10" guides="1" tooltips="1" connect="1" arrows="1" fold="1" page="1" pageScale="1" pageWidth="827" pageHeight="1169" math="0" shadow="0">
      <root>
        <mxCell id="0" />
        <mxCell id="1" parent="0" />
        <mxCell id="jqHRDxp3wz_p7oNFoLDN-17" value="Người mua" style="swimlane;fontStyle=0;childLayout=stackLayout;horizontal=1;startSize=30;horizontalStack=0;resizeParent=1;resizeParentMax=0;resizeLast=0;collapsible=1;marginBottom=0;whiteSpace=wrap;html=1;" parent="1" vertex="1">
          <mxGeometry x="320" y="70" width="220" height="130" as="geometry" />
        </mxCell>
        <mxCell id="jqHRDxp3wz_p7oNFoLDN-18" value="User ID: int&lt;div&gt;Họ tên: string&lt;/div&gt;&lt;div&gt;Email: string&amp;nbsp;&lt;/div&gt;&lt;div&gt;&lt;br&gt;&lt;/div&gt;&lt;div&gt;&lt;br&gt;&lt;/div&gt;&lt;div&gt;+Dangnhap()&lt;/div&gt;" style="text;html=1;align=left;verticalAlign=middle;resizable=0;points=[];autosize=1;strokeColor=none;fillColor=none;" parent="jqHRDxp3wz_p7oNFoLDN-17" vertex="1">
          <mxGeometry y="30" width="220" height="100" as="geometry" />
        </mxCell>
        <mxCell id="jqHRDxp3wz_p7oNFoLDN-19" value="" style="endArrow=none;html=1;rounded=0;exitX=-0.005;exitY=0.72;exitDx=0;exitDy=0;exitPerimeter=0;entryX=0.986;entryY=0.73;entryDx=0;entryDy=0;entryPerimeter=0;" parent="jqHRDxp3wz_p7oNFoLDN-17" source="jqHRDxp3wz_p7oNFoLDN-18" target="jqHRDxp3wz_p7oNFoLDN-18" edge="1">
          <mxGeometry width="50" height="50" relative="1" as="geometry">
            <mxPoint x="350" y="90" as="sourcePoint" />
            <mxPoint x="400" y="40" as="targetPoint" />
          </mxGeometry>
        </mxCell>
        <mxCell id="jqHRDxp3wz_p7oNFoLDN-27" value="Giỏ hàng" style="swimlane;fontStyle=0;childLayout=stackLayout;horizontal=1;startSize=30;horizontalStack=0;resizeParent=1;resizeParentMax=0;resizeLast=0;collapsible=1;marginBottom=0;whiteSpace=wrap;html=1;" parent="1" vertex="1">
          <mxGeometry x="130" y="270" width="240" height="300" as="geometry" />
        </mxCell>
        <mxCell id="jqHRDxp3wz_p7oNFoLDN-31" value="" style="endArrow=none;html=1;rounded=0;exitX=1.013;exitY=0.419;exitDx=0;exitDy=0;exitPerimeter=0;entryX=-0.017;entryY=0.415;entryDx=0;entryDy=0;entryPerimeter=0;" parent="jqHRDxp3wz_p7oNFoLDN-27" source="jqHRDxp3wz_p7oNFoLDN-28" edge="1">
          <mxGeometry width="50" height="50" relative="1" as="geometry">
            <mxPoint x="240.00000000000009" y="139.89" as="sourcePoint" />
            <mxPoint x="-4.085620730620576e-14" y="142.04999999999995" as="targetPoint" />
            <Array as="points">
              <mxPoint x="164.08" y="140" />
            </Array>
          </mxGeometry>
        </mxCell>
        <mxCell id="jqHRDxp3wz_p7oNFoLDN-28" value="Mã giỏ hàng: int&lt;div&gt;Tổng chi phí giỏ hàng: double&lt;/div&gt;&lt;div&gt;&lt;span class=&quot;fontstyle0&quot;&gt;Tổng chi phí sau khuyến mãi: double&lt;/span&gt;&lt;/div&gt;&lt;div&gt;&lt;span class=&quot;fontstyle0&quot;&gt;Chi phí vận chuyển: double&lt;/span&gt;&lt;/div&gt;&lt;div&gt;&lt;span class=&quot;fontstyle0&quot;&gt;Khuyến mãi&lt;br&gt;tiết kiệm: double&amp;nbsp;&lt;/span&gt;&lt;/div&gt;&lt;div&gt;&lt;span class=&quot;fontstyle0&quot;&gt;Tổng giá trị đơn hàng: double&lt;/span&gt;&lt;br style=&quot;font-variant-numeric: normal; font-variant-east-asian: normal; font-variant-alternates: normal; font-variant-position: normal; font-variant-emoji: normal; line-height: normal; text-align: -webkit-auto; text-size-adjust: auto;&quot;&gt;&lt;/div&gt;&lt;div&gt;&lt;span class=&quot;fontstyle0&quot;&gt;&lt;p style=&quot;line-height:normal&quot; class=&quot;MsoNormal&quot;&gt;&amp;nbsp;&lt;span style=&quot;background-color: transparent; color: light-dark(rgb(0, 0, 0), rgb(255, 255, 255));&quot;&gt;+ themSanPham(sp: SanPham, soLuong: int)&lt;/span&gt;&lt;/p&gt;&lt;p style=&quot;line-height:normal&quot; class=&quot;MsoNormal&quot;&gt;&lt;span style=&quot;background-color: transparent; color: light-dark(rgb(0, 0, 0), rgb(255, 255, 255));&quot;&gt;+ xoaSanPham(itemId: int)&lt;/span&gt;&lt;/p&gt;&lt;p style=&quot;line-height:normal&quot; class=&quot;MsoNormal&quot;&gt;+capNhatSoLuong(itemId: int, soLuong:&lt;br&gt;int)&lt;/p&gt;&lt;p style=&quot;line-height:normal&quot; class=&quot;MsoNormal&quot;&gt;+ tinhTongTien()&lt;/p&gt;&lt;p style=&quot;line-height:normal&quot; class=&quot;MsoNormal&quot;&gt;+ thanhToan()&lt;/p&gt;&lt;/span&gt;&lt;/div&gt;" style="text;strokeColor=none;fillColor=none;align=left;verticalAlign=middle;spacingLeft=4;spacingRight=4;overflow=hidden;points=[[0,0.5],[1,0.5]];portConstraint=eastwest;rotatable=0;whiteSpace=wrap;html=1;" parent="jqHRDxp3wz_p7oNFoLDN-27" vertex="1">
          <mxGeometry y="30" width="240" height="270" as="geometry" />
        </mxCell>
        <mxCell id="jqHRDxp3wz_p7oNFoLDN-32" value="Sản phẩm" style="swimlane;fontStyle=0;childLayout=stackLayout;horizontal=1;startSize=30;horizontalStack=0;resizeParent=1;resizeParentMax=0;resizeLast=0;collapsible=1;marginBottom=0;whiteSpace=wrap;html=1;" parent="1" vertex="1">
          <mxGeometry x="450" y="328" width="220" height="190" as="geometry" />
        </mxCell>
        <mxCell id="jqHRDxp3wz_p7oNFoLDN-33" value="&lt;p style=&quot;line-height:normal&quot; class=&quot;MsoNormal&quot;&gt;&amp;nbsp;- Mã sản phẩm: int&lt;/p&gt;&lt;p style=&quot;line-height:normal&quot; class=&quot;MsoNormal&quot;&gt;- Tên: string&lt;/p&gt;&lt;p style=&quot;line-height:normal&quot; class=&quot;MsoNormal&quot;&gt;&amp;nbsp;- Giá: double&lt;/p&gt;&lt;p style=&quot;line-height:normal&quot; class=&quot;MsoNormal&quot;&gt;- Tồn Kho: int&lt;/p&gt;&lt;p style=&quot;line-height:normal&quot; class=&quot;MsoNormal&quot;&gt;&lt;span style=&quot;background-color: transparent; color: light-dark(rgb(0, 0, 0), rgb(255, 255, 255));&quot;&gt;&amp;nbsp;+ capNhatTonKho()&lt;/span&gt;&lt;/p&gt;" style="text;html=1;align=left;verticalAlign=middle;resizable=0;points=[];autosize=1;strokeColor=none;fillColor=none;" parent="jqHRDxp3wz_p7oNFoLDN-32" vertex="1">
          <mxGeometry y="30" width="220" height="160" as="geometry" />
        </mxCell>
        <mxCell id="jqHRDxp3wz_p7oNFoLDN-34" value="" style="endArrow=none;html=1;rounded=0;exitX=-0.005;exitY=0.72;exitDx=0;exitDy=0;exitPerimeter=0;entryX=0.986;entryY=0.73;entryDx=0;entryDy=0;entryPerimeter=0;" parent="jqHRDxp3wz_p7oNFoLDN-32" edge="1">
          <mxGeometry width="50" height="50" relative="1" as="geometry">
            <mxPoint x="9.103828801926284e-14" y="153.75" as="sourcePoint" />
            <mxPoint x="218.02000000000007" y="156.25" as="targetPoint" />
          </mxGeometry>
        </mxCell>
        <mxCell id="jqHRDxp3wz_p7oNFoLDN-38" value="Chứa" style="text;html=1;align=center;verticalAlign=middle;resizable=0;points=[];autosize=1;strokeColor=none;fillColor=none;" parent="1" vertex="1">
          <mxGeometry x="380" y="380" width="50" height="30" as="geometry" />
        </mxCell>
        <mxCell id="jqHRDxp3wz_p7oNFoLDN-39" value="1,n" style="text;html=1;align=center;verticalAlign=middle;resizable=0;points=[];autosize=1;strokeColor=none;fillColor=none;" parent="1" vertex="1">
          <mxGeometry x="385" y="420" width="40" height="30" as="geometry" />
        </mxCell>
        <mxCell id="jqHRDxp3wz_p7oNFoLDN-41" value="Sỡ hữu" style="text;html=1;align=center;verticalAlign=middle;resizable=0;points=[];autosize=1;strokeColor=none;fillColor=none;" parent="1" vertex="1">
          <mxGeometry x="240" y="218" width="60" height="30" as="geometry" />
        </mxCell>
        <mxCell id="jqHRDxp3wz_p7oNFoLDN-42" value="1,1" style="text;html=1;align=center;verticalAlign=middle;resizable=0;points=[];autosize=1;strokeColor=none;fillColor=none;" parent="1" vertex="1">
          <mxGeometry x="330" y="238" width="40" height="30" as="geometry" />
        </mxCell>
        <mxCell id="8xOX6rfstsinJxjxWXtM-2" value="" style="endArrow=none;html=1;rounded=0;exitX=0.5;exitY=0;exitDx=0;exitDy=0;entryX=0.482;entryY=1.04;entryDx=0;entryDy=0;entryPerimeter=0;" parent="1" source="jqHRDxp3wz_p7oNFoLDN-27" target="jqHRDxp3wz_p7oNFoLDN-18" edge="1">
          <mxGeometry width="50" height="50" relative="1" as="geometry">
            <mxPoint x="570" y="290" as="sourcePoint" />
            <mxPoint x="620" y="240" as="targetPoint" />
          </mxGeometry>
        </mxCell>
        <mxCell id="8xOX6rfstsinJxjxWXtM-3" value="" style="endArrow=none;html=1;rounded=0;exitX=1;exitY=0.433;exitDx=0;exitDy=0;entryX=-0.009;entryY=0.344;entryDx=0;entryDy=0;entryPerimeter=0;exitPerimeter=0;" parent="1" source="jqHRDxp3wz_p7oNFoLDN-28" target="jqHRDxp3wz_p7oNFoLDN-33" edge="1">
          <mxGeometry width="50" height="50" relative="1" as="geometry">
            <mxPoint x="260" y="280" as="sourcePoint" />
            <mxPoint x="436" y="214" as="targetPoint" />
          </mxGeometry>
        </mxCell>
      </root>
    </mxGraphModel>
  </diagram>
</mxfile>
